# xmcd CD database file
#
# Track frame offsets:
#	150
#	19649
#	34909
#	52139
#	63585
#	82173
#	90909
#	99567
#	104971
#	112045
#	123086
#	140093
#	153820
#	176167
#	186269
#	204325
#	219071
#	232646
#	241794
#	256635
#	270149
#	283902
#
# Disc length: 3977 seconds
#
# Revision: 2
# Processed by: cddbd v1.5.2PL0 Copyright (c) Steve Scherf et al.
# Submitted via: CDex 1.70beta2
#
DISCID=2c0f8716
DTITLE=渚ゆう子 - 渚ゆう子オン・ステージ
DYEAR=1972
DGENRE=Blues
TTITLE0=京都の恋
TTITLE1=女ひとり
TTITLE2=京都の夜
TTITLE3=京都慕情
TTITLE4=童謡メドレー　森の小人～花嫁人形～雨降りお月～かもめの水兵さん
TTITLE5=北国の青い空
TTITLE6=遠くへ行きたい
TTITLE7=雲の流れに
TTITLE8=しのび雨
TTITLE9=ちんさぐの花
TTITLE10=ノン・サペポ
TTITLE11=ケ・アウ・カハ
TTITLE12=パーリー・シェルス
TTITLE13=タイニー・バブルス
TTITLE14=ビヨン・ザ・リーフ
TTITLE15=ルアウの火も消えて
TTITLE16=今日からひとり
TTITLE17=めぐり逢い
TTITLE18=長崎慕情
TTITLE19=雨の日のブルース
TTITLE20=さいはて慕情
TTITLE21=聖者が街にやってくる
EXTD=YEAR: 1972
EXTT0=
EXTT1=
EXTT2=
EXTT3=
EXTT4=
EXTT5=
EXTT6=
EXTT7=
EXTT8=
EXTT9=
EXTT10=
EXTT11=
EXTT12=
EXTT13=
EXTT14=
EXTT15=
EXTT16=
EXTT17=
EXTT18=
EXTT19=
EXTT20=
EXTT21=
PLAYORDER=
